<svg width="48" height="22" viewBox="0 0 48 22" fill="none" xmlns="http://www.w3.org/2000/svg">
<path d="M31.8672 0.126831H35.209V2.54382H30.542V5.46082H35.209V7.87781H30.542V14.7948H35.209V17.2118H15.459V14.7948H19.8584V7.87781H16.125V5.46082H22.542V14.7938H27.8584V7.87683H24.792V5.45984H27.8584V4.13562C27.8584 1.92532 29.6569 0.126936 31.8672 0.126831ZM21.2002 0.126831C21.8547 0.126831 22.2838 0.326408 22.5508 0.630737C22.8203 0.937972 22.9414 1.371 22.9414 1.86804C22.9414 2.36518 22.8202 2.7981 22.5508 3.10535C22.2839 3.40964 21.8552 3.60925 21.2002 3.60925C20.5458 3.60921 20.1176 3.40964 19.8506 3.10535C19.581 2.79807 19.459 2.36519 19.459 1.86804C19.459 1.37095 19.581 0.937978 19.8506 0.630737C20.1176 0.326543 20.5459 0.126872 21.2002 0.126831Z" fill="#E8E8E8" stroke="url(#paint0_linear_6964_20336)" stroke-width="0.25"/>
<path d="M39.4072 5.45996L42.0469 14.0391L42.167 14.4268L42.2861 14.0391L44.9258 5.45996H47.8223L43.0967 18.5586C42.5266 20.144 41.01 21.21 39.3252 21.21H37.458V18.793H38.6885C39.3383 18.793 39.8583 18.5403 40.1602 18.1172C40.4619 17.6941 40.5313 17.1205 40.3193 16.5059L36.5088 5.45996H39.4072ZM5.71973 0.125977C9.16518 0.135972 11.3598 1.12512 12.6973 2.66504C14.0444 4.21638 14.542 6.34847 14.542 8.66699C14.542 10.9855 14.0444 13.1176 12.6973 14.6689C11.353 16.2167 9.1428 17.209 5.66699 17.209H0.125V0.125977H5.71973ZM3.0752 14.793H5.7334C7.76425 14.793 9.23831 14.2947 10.2012 13.2627C11.1623 12.2325 11.5918 10.6946 11.5918 8.66797C11.5918 6.64137 11.1623 5.10343 10.2012 4.07324C9.23831 3.04123 7.76425 2.54297 5.7334 2.54297H3.0752V14.793Z" fill="#E8E8E8" stroke="url(#paint1_linear_6964_20336)" stroke-width="0.25"/>
<defs>
<linearGradient id="paint0_linear_6964_20336" x1="-0.499999" y1="-0.332397" x2="47.5" y2="21.6676" gradientUnits="userSpaceOnUse">
<stop stop-color="white"/>
<stop offset="1" stop-color="#E8E8E8"/>
</linearGradient>
<linearGradient id="paint1_linear_6964_20336" x1="-6.53567e-08" y1="-0.332521" x2="48" y2="21.6675" gradientUnits="userSpaceOnUse">
<stop stop-color="white"/>
<stop offset="1" stop-color="#E8E8E8"/>
</linearGradient>
</defs>
</svg>
