<svg width="59" height="26" viewBox="0 0 59 26" fill="none" xmlns="http://www.w3.org/2000/svg">
<g clip-path="url(#clip0_6517_15915)">
<path d="M25.8003 4.55132C27.4579 4.55132 28.0731 3.53372 28.0731 2.27566C28.0731 1.01759 27.4608 0 25.8003 0C24.1396 0 23.5273 1.01759 23.5273 2.27566C23.5273 3.53372 24.1396 4.55132 25.8003 4.55132Z" fill="#0033FF"/>
<path d="M6.89381 0.00292969H-0.00390625V21.1261H6.89381C15.4142 21.1261 17.8482 16.2522 17.8482 10.5631C17.8482 4.8739 15.4142 0.00292969 6.89381 0.00292969ZM6.97582 17.8769H3.89161V3.2522H6.97582C11.876 3.2522 13.9556 5.65982 13.9556 10.5631C13.9556 15.4663 11.876 17.8739 6.97582 17.8739V17.8769Z" fill="black"/>
<path d="M33.7521 5.04105V6.50439H30.0207V9.75368H33.7521V17.8798H27.5838V6.50146H19.4705V9.75076H24.0133V17.8769H18.6562V21.1261H42.9989V17.8769H37.3197V9.75076H42.9989V6.50146H37.3197V3.2522H42.9989V0.00292969H38.7783C36.0046 0.00292969 33.7463 2.26393 33.7463 5.04105H33.7521Z" fill="#0033FF"/>
<path d="M54.5685 6.50146L51.3231 17.0645L48.0779 6.50146H44.2234L48.9302 20.1643C49.4193 21.5865 48.5904 22.7507 47.0879 22.7507H45.4389V26H47.8641C49.9787 26 51.8826 24.6598 52.5972 22.6686L58.423 6.50146H54.5685Z" fill="black"/>
</g>
<defs>
<clipPath id="clip0_6517_15915">
<rect width="58.427" height="26" fill="white" transform="translate(-0.00390625)"/>
</clipPath>
</defs>
</svg>
